<?xml version="1.0" standalone="no"?>
<!DOCTYPE svg PUBLIC "-//W3C//DTD SVG 20010904//EN"
 "http://www.w3.org/TR/2001/REC-SVG-20010904/DTD/svg10.dtd">
<svg version="1.0" xmlns="http://www.w3.org/2000/svg"
 width="300.000000pt" height="298.000000pt" viewBox="0 0 300.000000 298.000000"
 preserveAspectRatio="xMidYMid meet">
<metadata>
Created by potrace 1.10, written by Peter Selinger 2001-2011
</metadata>
<g transform="translate(0.000000,298.000000) scale(0.100000,-0.100000)"
fill="#000000" stroke="none">
<path d="M788 2973 c409 -2 1075 -2 1480 0 405 1 71 2 -743 2 -814 0 -1146 -1
-737 -2z"/>
<path d="M1663 1948 c15 -61 19 -209 7 -238 -22 -52 -48 -39 -84 45 -31 70
-58 94 -103 95 -18 0 -33 4 -33 9 0 4 -12 20 -26 35 -21 20 -36 26 -71 26 -38
0 -49 -5 -71 -32 -15 -18 -62 -67 -104 -109 -68 -68 -77 -82 -84 -125 -7 -49
-31 -98 -71 -147 -21 -26 -47 -96 -38 -105 2 -2 11 10 20 27 8 17 18 31 21 31
3 0 3 -4 0 -9 -4 -5 -2 -19 2 -32 8 -22 9 -21 20 11 7 18 12 46 12 62 0 16 8
43 17 61 l17 32 9 -59 c5 -37 4 -69 -2 -89 -6 -16 -11 -69 -11 -118 l0 -87
-72 -17 c-111 -25 -214 -62 -308 -111 -80 -41 -207 -131 -198 -140 3 -2 29 8
58 22 82 40 273 101 385 123 349 70 724 50 1040 -54 55 -18 127 -46 160 -61
33 -16 65 -30 70 -33 6 -2 1 6 -10 19 -54 61 -261 173 -379 205 -44 12 -62 21
-54 26 23 15 67 10 77 -8 10 -17 10 -17 11 -1 0 9 10 24 22 32 17 12 18 16 6
16 -8 0 -21 7 -28 15 -16 20 -27 19 -32 -2 -3 -10 -26 -26 -52 -35 -41 -15
-55 -16 -95 -6 -25 6 -51 18 -56 25 -6 8 -19 15 -30 17 -18 3 -20 12 -23 80
-2 58 2 86 16 120 18 40 23 43 69 50 64 8 118 45 133 92 14 42 9 119 -13 181
l-14 41 31 7 c17 4 36 7 41 5 6 -1 18 -5 28 -7 13 -4 17 1 17 23 0 42 -10 52
-75 74 -32 11 -62 26 -66 32 -6 9 -11 9 -23 -1 -11 -9 -20 -10 -35 -2 -29 16
-34 14 -28 -11z m113 -44 c19 -9 34 -19 34 -23 0 -4 -13 -14 -29 -24 -35 -20
-43 -55 -25 -105 18 -51 17 -123 -2 -150 -18 -26 -81 -55 -106 -48 -10 2 -18
0 -18 -5 0 -5 -17 -9 -37 -9 -20 0 -45 -7 -55 -17 -17 -15 -19 -15 -37 1 -32
29 -282 40 -288 13 -4 -17 -38 -35 -49 -26 -6 5 -14 6 -17 2 -4 -3 -8 5 -9 18
-2 42 -3 47 -9 54 -9 8 10 99 21 103 6 2 10 7 10 11 0 11 154 166 163 163 4
-1 7 2 7 8 0 18 46 11 71 -11 13 -12 47 -32 76 -45 45 -20 54 -30 76 -78 27
-59 63 -89 99 -84 32 4 68 63 68 110 0 22 5 48 10 58 8 16 8 18 -5 14 -12 -5
-15 2 -15 34 0 34 7 46 28 51 2 1 19 -6 38 -15z m-550 -406 c-53 -65 -57 -77
-63 -152 -5 -64 -3 -76 9 -76 9 0 21 -7 28 -15 10 -12 9 -15 -4 -15 -43 0 -56
18 -56 81 0 33 7 75 14 94 17 40 75 115 89 115 5 0 -2 -15 -17 -32z m137 12
c21 -4 58 -5 84 -2 44 5 45 4 37 -19 -11 -30 -11 -84 0 -171 l8 -68 -111 0
c-81 0 -120 4 -141 15 -29 15 -30 19 -30 81 0 70 6 88 53 147 21 27 34 36 46
31 9 -3 33 -10 54 -14z m219 4 c4 -3 -2 -24 -13 -47 -13 -30 -19 -65 -19 -123
0 -76 2 -82 23 -89 12 -3 17 -8 11 -11 -6 -3 -23 0 -37 5 -26 10 -27 14 -27
85 0 52 7 93 21 131 19 52 28 63 41 49z m-317 -298 c18 -8 36 -12 39 -9 7 8
97 13 119 7 38 -11 3 -23 -66 -23 -39 0 -115 -4 -167 -10 -52 -6 -96 -8 -99
-6 -2 3 4 14 15 26 14 15 26 19 49 15 16 -3 37 -1 45 4 20 13 25 12 65 -4z
m315 -1 c27 -2 51 -12 64 -25 l21 -22 -30 5 c-16 3 -65 9 -108 12 -76 7 -89
17 -43 35 11 5 28 7 37 4 9 -2 35 -6 59 -9z m170 -47 c0 -11 -41 -10 -60 2
-11 7 -5 9 23 8 20 -1 37 -5 37 -10z"/>
<path d="M3 1755 c0 -33 2 -45 4 -27 2 18 2 45 0 60 -2 15 -4 0 -4 -33z"/>
<path d="M1815 1447 c-4 -10 -30 -24 -64 -33 -31 -9 -60 -20 -65 -25 -13 -12
-8 -11 53 7 30 8 63 13 75 10 15 -4 26 1 34 14 10 16 10 20 -2 20 -8 0 -16 6
-19 13 -3 8 -7 6 -12 -6z"/>
<path d="M1927 1424 c-4 -16 -10 -35 -15 -42 -5 -7 -73 -35 -153 -62 -154 -53
-141 -56 34 -8 101 27 110 28 133 13 13 -8 24 -22 24 -30 0 -8 5 -15 10 -15 6
0 10 9 10 21 0 12 14 34 30 49 32 30 31 33 -12 44 -16 3 -28 10 -28 14 0 5 -6
16 -13 27 -13 17 -14 16 -20 -11z"/>
<path d="M4 1045 c0 -154 2 -216 3 -137 2 79 2 205 0 280 -1 75 -3 11 -3 -143z"/>
</g>
</svg>
